<svg xmlns="http://www.w3.org/2000/svg" viewBox="0 0 1440 320"><path fill="#1D3557" fill-opacity="1" d="M0,96L10,106.7C20,117,40,139,60,165.3C80,192,100,224,120,208C140,192,160,128,180,133.3C200,139,220,213,240,224C260,235,280,181,300,186.7C320,192,340,256,360,240C380,224,400,128,420,90.7C440,53,460,75,480,112C500,149,520,203,540,202.7C560,203,580,149,600,106.7C620,64,640,32,660,37.3C680,43,700,85,720,101.3C740,117,760,107,780,117.3C800,128,820,160,840,144C860,128,880,64,900,53.3C920,43,940,85,960,138.7C980,192,1000,256,1020,282.7C1040,309,1060,299,1080,250.7C1100,203,1120,117,1140,117.3C1160,117,1180,203,1200,245.3C1220,288,1240,288,1260,288C1280,288,1300,288,1320,266.7C1340,245,1360,203,1380,181.3C1400,160,1420,160,1430,160L1440,160L1440,320L1430,320C1420,320,1400,320,1380,320C1360,320,1340,320,1320,320C1300,320,1280,320,1260,320C1240,320,1220,320,1200,320C1180,320,1160,320,1140,320C1120,320,1100,320,1080,320C1060,320,1040,320,1020,320C1000,320,980,320,960,320C940,320,920,320,900,320C880,320,860,320,840,320C820,320,800,320,780,320C760,320,740,320,720,320C700,320,680,320,660,320C640,320,620,320,600,320C580,320,560,320,540,320C520,320,500,320,480,320C460,320,440,320,420,320C400,320,380,320,360,320C340,320,320,320,300,320C280,320,260,320,240,320C220,320,200,320,180,320C160,320,140,320,120,320C100,320,80,320,60,320C40,320,20,320,10,320L0,320Z"></path></svg>